<mxfile host="app.diagrams.net" modified="2023-08-30T20:01:38.029Z" agent="Mozilla/5.0 (Windows NT 10.0; Win64; x64; rv:109.0) Gecko/20100101 Firefox/116.0" etag="mtRwBPi4o4bYkp1J33fS" version="21.7.1" type="github">
  <diagram name="Page-1" id="shF8shhkMKsd_J-aFrly">
    <mxGraphModel dx="1728" dy="928" grid="1" gridSize="10" guides="1" tooltips="1" connect="1" arrows="1" fold="1" page="1" pageScale="1" pageWidth="850" pageHeight="1100" math="0" shadow="0">
      <root>
        <mxCell id="0" />
        <mxCell id="1" parent="0" />
        <mxCell id="lNHIe1rahEr5vsZYYmyg-1" value="DMX512 Universe" style="rounded=0;whiteSpace=wrap;html=1;" vertex="1" parent="1">
          <mxGeometry x="280" y="290" width="250" height="110" as="geometry" />
        </mxCell>
      </root>
    </mxGraphModel>
  </diagram>
</mxfile>
